<?xml version="1.0" encoding="UTF-8"?>
<svg id="Ebene_2" xmlns="http://www.w3.org/2000/svg" version="1.1" viewBox="0 0 753.8 168.4">
  <!-- Generator: Adobe Illustrator 29.1.0, SVG Export Plug-In . SVG Version: 2.1.0 Build 142)  -->
  <defs>
    <style>
      .st0 {
        fill: #c4d900;
      }

      .st1 {
        fill: #fff;
      }

      .st2 {
        fill: #0052cc;
      }
    </style>
  </defs>
  <g>
    <path class="st2" d="M134.2,121.1c0-2.2.1-4.4.4-6.6.2-2.2.6-4.4,1.1-6.6l10.7-44.8h-17.4l-10,42.6c-1.1,4.3-1.7,8.6-2,12.7-2.1,2.2-4.4,4-6.9,5.3s-5.3,1.9-8.5,1.9-3.5-.3-4.8-.9c-1.3-.6-2.3-1.4-3-2.4-.7-1-1.2-2.2-1.5-3.5-.3-1.3-.4-2.8-.4-4.3,0-3.2.6-7.2,1.8-12.2l9.4-39.2h-53.6l1.3-5c.6-2.4,1.3-4.6,2.2-6.7.9-2.1,2.1-3.8,3.5-5.3s3.2-2.6,5.2-3.4c2-.8,4.5-1.2,7.3-1.2s5.2.3,7.3.8c2.1.5,3.7,1.1,5,1.7l6.3-13.7c-1.6-.8-4-1.6-7.1-2.4-3.1-.8-6.6-1.2-10.4-1.2s-10.1.7-14.2,2.1-7.6,3.4-10.5,6.1-5.4,5.9-7.3,9.8c-2,3.9-3.5,8.3-4.7,13.2l-17.1,72c-.9,3.8-1.9,7.3-2.9,10.4-1.1,3.1-2.3,6-3.6,8.6-1.3,2.6-2.7,5.1-4.3,7.5-1.6,2.4-3.3,4.7-5.1,7l15.2,2.3c3-2.9,5.5-5.8,7.4-8.7,2-2.9,3.7-6.1,5.1-9.4,1.4-3.4,2.7-7.1,3.8-11.1,1.1-4,2.3-8.6,3.5-13.8l10.7-45.1h36.1l-6.1,25.2c-1.2,4.9-1.7,9.5-1.7,13.7s.4,6.4,1.2,9.3c.8,2.9,2.2,5.5,4,7.6s4.3,3.9,7.3,5.1c3,1.2,6.6,1.9,10.8,1.9s8.8-.9,12.4-2.7c3.6-1.8,6.5-3.6,8.9-5.5.4,1.3.8,2.7,1.2,4s.9,2.5,1.5,3.5l15.6-2.3c-1.1-2.6-1.8-5.2-2.2-7.9s-.6-5.4-.6-8.2h0Z"/>
    <path class="st2" d="M181.1,77c1.2-.7,2.7-1.2,4.2-1.4s3.2-.4,4.8-.4c3.4,0,6.6.5,9.6,1.4,3.1.9,5.4,1.8,7.1,2.8l6.2-13.5c-1.9-1.1-4.8-2.1-8.6-3.1-3.8-1-8.1-1.5-12.9-1.5-10.4,0-18.3,2.2-23.8,6.6-5.5,4.4-8.2,10.4-8.2,17.9s.4,5.3,1.3,7.4c.9,2.1,2,3.9,3.5,5.4,1.4,1.5,3.1,2.9,5.1,4s4.1,2.3,6.4,3.3c4.3,2,7.3,3.8,9.1,5.3,1.7,1.5,2.6,3.5,2.6,6s-1.4,5.3-4,6.8c-2.7,1.5-6.3,2.2-10.9,2.2s-4.5-.2-6.6-.7c-2.1-.4-3.9-.9-5.6-1.5-1.7-.6-3.2-1.2-4.5-1.8-1.3-.6-2.3-1.1-2.9-1.5l-6.2,13.7c.8.5,1.9,1.1,3.3,1.7s3.2,1.3,5.3,1.9,4.6,1.2,7.4,1.7c2.8.5,6,.7,9.6.7,5.2,0,9.8-.6,13.8-1.9,4-1.2,7.4-2.9,10.1-5.1,2.7-2.2,4.8-4.8,6.3-7.8,1.4-3,2.2-6.3,2.2-9.9s-.3-5.3-1-7.4c-.7-2.1-1.7-3.9-3.2-5.6s-3.3-3.2-5.5-4.5c-2.2-1.3-4.9-2.7-8.1-4.2-3.4-1.5-5.9-3-7.7-4.4-1.8-1.4-2.7-3.2-2.7-5.4s.4-3.2,1.2-4.4,1.9-2.1,3.1-2.8h0Z"/>
    <g>
      <polygon class="st2" points="213.8 138.4 231.3 138.4 249.4 63.1 232 63.1 213.8 138.4"/>
      <path class="st2" d="M253.5,32.6c-2-1.6-4.2-2.4-6.8-2.4s-6,1.1-8.4,3.5c-2.4,2.3-3.7,5.2-3.7,8.8s1,5.4,2.9,6.9c1.9,1.5,4.2,2.3,6.8,2.3s6-1.1,8.5-3.4,3.7-5.2,3.7-8.7-1-5.4-2.9-7h0Z"/>
    </g>
    <path class="st2" d="M319.8,69c-4.7-5.2-11.5-7.8-20.5-7.8s-13.6,1.6-19,4.8-9.8,7.2-13.4,12.1c-3.5,4.9-6.2,10.3-7.9,16.3s-2.6,11.7-2.6,17.3c0,8.6,2.4,15.6,7.1,20.9,4.7,5.3,11.5,7.9,20.5,7.9s13.8-1.6,19.2-4.8,9.9-7.2,13.4-12.1,6.1-10.3,7.8-16.3,2.5-11.8,2.5-17.4c0-8.6-2.4-15.6-7.1-20.8h0ZM308,103.1c-1.1,4-2.6,7.7-4.5,11-2,3.3-4.4,6.1-7.3,8.2-2.9,2.2-6.3,3.2-10,3.2s-7.8-1.4-9.6-4.2c-1.8-2.8-2.7-6.6-2.7-11.4s.5-7.6,1.6-11.6c1.1-4,2.6-7.7,4.5-11,2-3.4,4.4-6.1,7.3-8.3,2.9-2.2,6.3-3.2,10-3.2s7.8,1.4,9.6,4.2c1.8,2.8,2.7,6.7,2.7,11.4s-.5,7.5-1.6,11.5Z"/>
    <path class="st2" d="M400.2,68c-4.1-4.3-10.6-6.5-19.4-6.5s-11.3.5-16.2,1.5c-5,1-9.3,2.1-13.2,3.2l-17.3,72.1h17.5l14.4-60.9c3-.9,6.5-1.3,10.7-1.3s8.2,1.1,9.9,3.3,2.5,5,2.4,8.3c-.1,2-.4,4.1-.9,6.3-.5,2.2-1,4.4-1.4,6.5l-8.9,37.7h17.4l9.5-39.6c.5-2.4.9-4.7,1.2-7s.5-4.4.5-6.4c0-7.3-2.1-13.1-6.2-17.4h0Z"/>
    <path class="st2" d="M629,63.1l-3.5,14.4h33.4c-3.4,3.1-7.2,6.7-11.5,10.9-4.3,4.2-8.6,8.5-12.9,13.1s-8.5,9.1-12.5,13.8c-4,4.6-7.4,8.8-10.3,12.7l-2.6,10.5h58.5l3.5-14.4h-37.6c2.1-2.5,4.6-5.3,7.3-8.3s5.7-6.1,8.8-9.3,6.2-6.3,9.4-9.4,6.2-6.1,9.1-8.9c2.9-2.8,5.5-5.3,8-7.6,2.5-2.2,4.5-4.1,6.1-5.5l2.9-12h-56.2,0Z"/>
    <path class="st2" d="M747.8,66.8c-4-3.7-9.7-5.6-17-5.6s-13,1.4-18.4,4.2c-5.5,2.8-10.2,6.5-14,11.2-3.9,4.7-6.9,10-8.9,16-2.1,6-3.1,12.2-3.1,18.7s.6,7.8,1.7,11.3c1.2,3.5,3,6.6,5.4,9.3s5.6,4.8,9.4,6.3c3.8,1.5,8.5,2.3,13.8,2.3s10.2-.5,14.4-1.6c4.2-1.1,7.5-2.1,9.8-3.2l-1.4-14.1c-6.5,2.7-13.1,4-19.6,4-11,0-16.6-4.4-16.6-13.1v-1.4c0-.2,0-.4.1-.6,6.1-.2,12.2-.7,18.2-1.4,6-.8,11.4-2.2,16.1-4.3s8.6-5,11.6-8.8c3-3.7,4.5-8.6,4.5-14.7s-2-10.7-6-14.4h0ZM729.7,93.7c-5.2,2.4-13.6,3.8-25.1,4.2.7-3.2,1.8-6.1,3.2-8.9s3.2-5.1,5.3-7.1,4.3-3.6,6.9-4.8,5.3-1.7,8.2-1.7,5.9.8,7.3,2.3c1.4,1.5,2.1,3.3,2.1,5.2,0,4.8-2.6,8.4-7.8,10.8h0Z"/>
  </g>
  <g>
    <rect class="st1" x="422.4" width="168.4" height="168.4" rx="28.4" ry="28.4"/>
    <g>
      <path class="st0" d="M488.9,51.2c-2.4,5.5-5.1,12.2-8.2,20.1s-6.3,16.5-9.6,25.7h35.6c-3.3-9.3-6.5-17.9-9.7-25.9-3.1-8-5.8-14.7-8.1-20h0Z"/>
      <path class="st0" d="M562.5,0h-111.7c-15.7,0-28.4,12.7-28.4,28.4v111.7c0,15.7,12.7,28.4,28.4,28.4h111.7c15.7,0,28.3-12.7,28.3-28.4V28.4c0-15.7-12.7-28.4-28.3-28.4ZM520.8,138.4c-1.5-4.3-3-8.5-4.5-12.6s-3.1-8.4-4.5-12.8h-45.7c-1.5,4.4-3,8.7-4.5,12.9-1.5,4.2-3,8.4-4.5,12.6h-20.4c4-11.5,7.9-22.2,11.5-32,3.6-9.8,7.2-19,10.7-27.8,3.5-8.7,6.9-17.1,10.4-25s7-15.7,10.6-23.4h18.8c3.6,7.7,7.2,15.5,10.6,23.4s6.9,16.2,10.4,25c3.5,8.7,7.1,18,10.8,27.8,3.7,9.8,7.6,20.4,11.6,32h-21.2,0ZM575.2,138.4h-19.7V30.3h19.7v108.1Z"/>
    </g>
  </g>
</svg>