<?xml version="1.0" encoding="UTF-8"?>
<svg id="Ebene_1" xmlns="http://www.w3.org/2000/svg" version="1.1" viewBox="0 0 1080 1080">
  <!-- Generator: Adobe Illustrator 29.8.1, SVG Export Plug-In . SVG Version: 2.1.1 Build 2)  -->
  <defs>
    <style>
      .st0 {
        fill: #c4d900;
      }

      .st1 {
        fill: #fff;
      }

      .st2 {
        fill: #0052cc;
      }
    </style>
  </defs>
  <g>
    <rect class="st1" x="244.3" y="132.8" width="803.2" height="803.2" rx="140.7" ry="140.7"/>
    <g>
      <path class="st0" d="M561.5,377c-11.4,26.2-24.3,58.2-39.1,95.9-14.8,37.7-30,78.7-45.8,122.6h169.8c-15.7-44.4-31-85.4-46.3-123.5-14.8-38.2-27.7-70.1-38.6-95.4h0v.5Z"/>
      <path class="st0" d="M912.5,132.8H379.7c-74.9,0-135.5,60.6-135.5,135.5v532.8c0,74.9,60.6,135.5,135.5,135.5h532.8c74.9,0,135-60.6,135-135.5V268.2c0-74.9-60.6-135.5-135-135.5ZM713.6,792.9c-7.2-20.5-14.3-40.5-21.5-60.1-7.2-19.6-14.8-40.1-21.5-61.1h-218c-7.2,21-14.3,41.5-21.5,61.5-7.2,20-14.3,40.1-21.5,60.1h-97.3c19.1-54.9,37.7-105.9,54.9-152.6,17.2-46.7,34.3-90.6,51-132.6,16.7-41.5,32.9-81.6,49.6-119.2,16.7-37.7,33.4-74.9,50.6-111.6h89.7c17.2,36.7,34.3,73.9,50.6,111.6,16.2,37.7,32.9,77.3,49.6,119.2,16.7,41.5,33.9,85.9,51.5,132.6,17.6,46.7,36.3,97.3,55.3,152.6h-101.1l-.5-.5ZM973.1,792.9h-94V277.3h94v515.6Z"/>
    </g>
  </g>
  <path class="st2" d="M267.4,433.7h120.2l-16.5,68.7h-120.1l-51.1,215c-6,24.7-11.6,46.7-16.9,65.9-5.3,19.2-11.4,36.9-18.3,52.9-6.9,16-15,31-24.4,45-9.4,14-21.2,27.8-35.5,41.6l-72.3-11c8.7-11,16.8-22.1,24.4-33.3,7.6-11.2,14.4-23.1,20.6-35.7,6.2-12.6,11.9-26.3,17.2-41.2,5.3-14.9,10-31.5,14.1-49.8l81.7-343.4c5.5-23.4,12.9-44.3,22.3-62.8,9.4-18.5,21.1-34.1,35-46.7,14-12.6,30.7-22.2,50.1-28.8,19.5-6.6,42-10,67.7-10s34.9,2,49.8,5.8c14.9,3.9,26.2,7.7,34,11.3l-30.2,65.3c-6-2.7-13.9-5.4-23.7-7.9-9.9-2.5-21.4-3.8-34.7-3.8s-25.4,2-35,5.8c-9.6,3.9-17.9,9.3-24.7,16.1-6.9,6.9-12.5,15.2-16.8,25.1-4.4,9.9-7.9,20.5-10.6,31.9l-6.2,24Z"/>
</svg>
